<?xml version="1.0" encoding="UTF-8"?>
<svg id="Calque_2" xmlns="http://www.w3.org/2000/svg" version="1.1" viewBox="0 0 512 512">
  <!-- Generator: Adobe Illustrator 30.5.0, SVG Export Plug-In . SVG Version: 2.1.4 Build 167)  -->
  <defs>
    <style>
      .st0 {
        fill: #1d1d1b;
      }

      .st1 {
        fill: #fff;
      }
    </style>
  </defs>
  <rect class="st0" width="512" height="512"/>
  <path class="st1" d="M483.3,395.89H27.72v-93.36c0-70.05,22.24-129.82,66.7-179.31,44.47-49.49,98.17-74.24,161.1-74.24s116.37,24.75,160.94,74.24c44.57,49.49,66.85,109.26,66.85,179.31v93.36ZM96.74,318.72h317.24v-16.19c0-48.69-15.47-90.31-46.43-124.88-30.95-34.56-68.29-51.85-112.04-51.85s-81.4,17.28-112.35,51.85c-30.95,34.57-46.43,76.19-46.43,124.88v16.19Z"/>
  <ellipse class="st1" cx="242.38" cy="266.15" rx="41.93" ry="55.91"/>
  <ellipse class="st1" cx="321.34" cy="281.56" rx="33.5" ry="44.08"/>
</svg>